<svg xmlns="http://www.w3.org/2000/svg" viewBox="0 0 512 512" role="img" aria-label="SAFEPLATE"><defs><linearGradient id="g" x1="0" x2="1" y1="0" y2="1"><stop stop-color="#0b6b36"/><stop offset="1" stop-color="#12a055"/></linearGradient></defs><rect width="512" height="512" rx="116" fill="#020705"/><circle cx="256" cy="256" r="182" fill="url(#g)"/><circle cx="256" cy="256" r="118" fill="none" stroke="#eafff0" stroke-width="24"/><path d="M184 209c0-40 31-68 77-68 34 0 62 13 82 37l-39 34c-13-15-27-22-45-22-15 0-25 6-25 15 0 13 18 17 44 24 43 11 75 30 75 72 0 44-37 75-94 75-43 0-79-17-101-48l42-34c17 21 36 31 60 31 18 0 31-7 31-18 0-14-19-19-47-26-42-11-70-29-70-72Z" fill="#fff"/></svg>